<svg xmlns="http://www.w3.org/2000/svg" viewBox="0 0 32 32" fill="none">
  <!-- main leaf shape -->
  <path d="M16 3 C16 3 28 10 28 20 C28 26.627 22.627 30 16 30 C9.373 30 4 26.627 4 20 C4 10 16 3 16 3Z"
        fill="#3db34a"/>
  <!-- highlight -->
  <path d="M16 5 C16 5 24 11.5 24 19.5 C24 23.5 21 26.5 17 27.5 C20 25.5 22 22.5 22 19.5 C22 12 16 5 16 5Z"
        fill="#52d45f" opacity="0.55"/>
  <!-- center vein -->
  <path d="M16 28 L16 14" stroke="#2a8c35" stroke-width="1.5" stroke-linecap="round"/>
  <!-- stem -->
  <path d="M16 28 C15 29.5 14 30.5 13 31" stroke="#2a8c35" stroke-width="1.5" stroke-linecap="round"/>
</svg>
